<svg width="42" height="33" viewBox="0 0 42 33" fill="none" xmlns="http://www.w3.org/2000/svg">
<path d="M35.5548 3.16496C32.8778 1.94508 30.0072 1.04632 27.0058 0.531563C26.9512 0.521628 26.8966 0.546456 26.8684 0.596112C26.4992 1.24824 26.0903 2.099 25.8039 2.76769C22.5757 2.28771 19.3641 2.28771 16.2021 2.76769C15.9156 2.08414 15.4918 1.24824 15.121 0.596112C15.0928 0.548113 15.0382 0.523285 14.9836 0.531563C11.9838 1.04467 9.11323 1.94343 6.43464 3.16496C6.41145 3.17489 6.39157 3.19146 6.37838 3.21296C0.933435 11.2919 -0.558163 19.1723 0.173565 26.955C0.176876 26.993 0.198397 27.0294 0.228197 27.0526C3.82062 29.6727 7.30049 31.2634 10.7157 32.3177C10.7704 32.3343 10.8283 32.3144 10.8631 32.2697C11.671 31.174 12.3911 30.0187 13.0086 28.8038C13.045 28.7326 13.0102 28.6482 12.9358 28.62C11.7935 28.1897 10.7058 27.665 9.65953 27.0692C9.57677 27.0212 9.57014 26.9036 9.64628 26.8473C9.86645 26.6835 10.0867 26.513 10.2969 26.3408C10.335 26.3094 10.388 26.3028 10.4327 26.3226C17.3062 29.4394 24.7477 29.4394 31.5402 26.3226C31.5849 26.3011 31.6379 26.3078 31.6776 26.3392C31.8879 26.5113 32.1081 26.6835 32.3299 26.8473C32.406 26.9036 32.401 27.0212 32.3183 27.0692C31.272 27.6766 30.1843 28.1897 29.0404 28.6184C28.9659 28.6465 28.9328 28.7326 28.9692 28.8038C29.5999 30.017 30.3201 31.1723 31.1131 32.2681C31.1462 32.3144 31.2058 32.3343 31.2604 32.3177C34.6922 31.2634 38.1721 29.6727 41.7645 27.0526C41.796 27.0294 41.8158 26.9947 41.8192 26.9566C42.6949 17.959 40.3524 10.1432 35.6094 3.21461C35.5978 3.19146 35.578 3.17489 35.5548 3.16496ZM14.035 22.2161C11.9656 22.2161 10.2605 20.3292 10.2605 18.012C10.2605 15.6947 11.9326 13.8078 14.035 13.8078C16.154 13.8078 17.8427 15.7113 17.8095 18.012C17.8095 20.3292 16.1375 22.2161 14.035 22.2161ZM27.9908 22.2161C25.9215 22.2161 24.2163 20.3292 24.2163 18.012C24.2163 15.6947 25.8883 13.8078 27.9908 13.8078C30.1099 13.8078 31.7984 15.7113 31.7654 18.012C31.7654 20.3292 30.1099 22.2161 27.9908 22.2161Z" fill="url(#paint0_linear_505_26)"/>
<defs>
<linearGradient id="paint0_linear_505_26" x1="20.9842" y1="0.182768" x2="20.9842" y2="31.8238" gradientUnits="userSpaceOnUse">
<stop stop-color="#8A7ED9"/>
<stop offset="1" stop-color="#383673"/>
</linearGradient>
</defs>
</svg>
