<svg width="799" height="128" viewBox="0 0 799 128" fill="none" xmlns="http://www.w3.org/2000/svg">
<path d="M300.979 45.7398L283.647 98.6725H270.49L258.84 62.8185L246.809 98.6725H233.728L216.32 45.7398H229.038L240.993 82.9471L253.482 45.7398H264.827L276.935 83.2521L289.272 45.7398H300.979ZM307.825 45.7398H320.085V98.6725H307.825V45.7398ZM332.631 45.7398H356.694C362.453 45.7398 367.506 46.8453 371.891 49.0755C376.334 51.2484 379.766 54.3173 382.188 58.3011C384.666 62.2848 385.887 66.9167 385.887 72.2157C385.887 77.5147 384.647 82.1465 382.188 86.1303C379.766 90.1141 376.334 93.221 371.891 95.4321C367.506 97.6051 362.434 98.6916 356.694 98.6916H332.631V45.7398ZM356.084 88.6273C361.385 88.6273 365.599 87.1596 368.726 84.2432C371.91 81.2697 373.493 77.2669 373.493 72.2157C373.493 67.1645 371.91 63.1998 368.726 60.2644C365.599 57.2908 361.385 55.804 356.084 55.804H344.892V88.6273H356.084ZM436.148 88.856V98.6916H395.153V45.7398H435.176V55.5753H407.338V67.0692H431.915V76.5997H407.338V88.856H436.148ZM525.193 45.7398L507.861 98.6725H494.705L483.054 62.8185L471.023 98.6725H457.943L440.534 45.7398H453.252L465.207 82.9471L477.696 45.7398H489.042L501.149 83.2521L513.486 45.7398H525.193ZM557.017 99.5875C551.526 99.5875 546.549 98.4057 542.106 96.0421C537.721 93.6785 534.27 90.419 531.734 86.2828C529.255 82.0893 528.035 77.4003 528.035 72.2157C528.035 67.0311 529.274 62.3611 531.734 58.2248C534.25 54.0314 537.702 50.7719 542.106 48.3893C546.549 46.0257 551.507 44.8439 557.017 44.8439C562.508 44.8439 567.466 46.0257 571.852 48.3893C576.237 50.7529 579.688 54.0314 582.224 58.2248C584.741 62.3611 586 67.0311 586 72.2157C586 77.4003 584.741 82.0893 582.224 86.2828C579.707 90.419 576.256 93.6594 571.852 96.0421C567.447 98.4057 562.508 99.5875 557.017 99.5875ZM557.017 89.161C560.144 89.161 562.966 88.4558 565.483 87.0452C568 85.5775 569.964 83.557 571.375 81.0029C572.843 78.4296 573.568 75.5133 573.568 72.2347C573.568 68.9562 572.843 66.0399 571.375 63.4666C569.964 60.8934 568 58.911 565.483 57.5005C562.966 56.0328 560.144 55.3085 557.017 55.3085C553.89 55.3085 551.068 56.0328 548.551 57.5005C546.034 58.911 544.032 60.9124 542.583 63.4666C541.172 66.0399 540.466 68.9562 540.466 72.2347C540.466 75.5133 541.172 78.4296 542.583 81.0029C544.051 83.5761 546.034 85.5966 548.551 87.0452C551.068 88.4558 553.89 89.161 557.017 89.161ZM628.939 98.6916L618.719 83.9383H618.109H607.45V98.6916H595.19V45.7398H618.109C622.8 45.7398 626.861 46.5213 630.293 48.0843C633.783 49.6473 636.452 51.8584 638.321 54.7366C640.189 57.6149 641.124 61.0077 641.124 64.9534C641.124 68.88 640.17 72.2919 638.244 75.1702C636.376 77.9912 633.706 80.1642 630.217 81.67L642.096 98.6916H628.939ZM628.711 64.9534C628.711 61.9799 627.757 59.7116 625.831 58.1486C623.906 56.5284 621.122 55.7278 617.442 55.7278H607.45V74.179H617.442C621.122 74.179 623.925 73.3784 625.831 71.7582C627.757 70.1571 628.711 67.8888 628.711 64.9534ZM650.829 45.7398H663.089V88.7036H689.65V98.6916H650.848V45.7398H650.829ZM696.476 45.7398H720.539C726.298 45.7398 731.351 46.8453 735.736 49.0755C740.179 51.2484 743.611 54.3173 746.033 58.3011C748.511 62.2848 749.732 66.9167 749.732 72.2157C749.732 77.5147 748.492 82.1465 746.033 86.1303C743.611 90.1141 740.179 93.221 735.736 95.4321C731.351 97.6051 726.279 98.6916 720.539 98.6916H696.476V45.7398ZM719.929 88.6273C725.23 88.6273 729.444 87.1596 732.571 84.2432C735.755 81.2697 737.338 77.2669 737.338 72.2157C737.338 67.1645 735.755 63.1998 732.571 60.2644C729.444 57.2908 725.23 55.804 719.929 55.804H708.737V88.6273H719.929ZM776.388 99.5875C772.193 99.5875 768.151 99.0347 764.204 97.9291C760.314 96.7664 757.187 95.2796 754.823 93.4688L758.979 84.2432C761.249 85.9016 763.956 87.2358 767.083 88.2461C770.21 89.2563 773.337 89.7519 776.464 89.7519C779.954 89.7519 782.509 89.2563 784.187 88.2461C785.846 87.1787 786.684 85.8063 786.684 84.0908C786.684 82.8327 786.189 81.8034 785.178 80.9838C784.225 80.126 782.966 79.4398 781.403 78.9443C779.896 78.4487 777.818 77.8768 775.206 77.2859C771.164 76.3329 767.865 75.3608 765.291 74.4077C762.717 73.4547 760.505 71.9107 758.636 69.7949C756.825 67.6791 755.91 64.8581 755.91 61.3318C755.91 58.2629 756.749 55.48 758.407 53.0211C760.066 50.5051 762.564 48.5036 765.901 47.055C769.276 45.5873 773.394 44.863 778.238 44.863C781.613 44.863 784.911 45.2632 788.153 46.0638C791.394 46.8644 794.197 48.0271 796.619 49.552L792.843 58.8538C787.943 56.09 783.062 54.6985 778.161 54.6985C774.729 54.6985 772.193 55.2513 770.515 56.3568C768.895 57.4624 768.094 58.9301 768.094 60.7409C768.094 62.5517 769.028 63.9241 770.897 64.82C772.822 65.6777 775.721 66.5355 779.591 67.3932C783.634 68.3463 786.932 69.3184 789.506 70.2714C792.081 71.2245 794.273 72.7494 796.085 74.808C797.953 76.8666 798.888 79.6686 798.888 83.1949C798.888 86.2256 798.03 88.9895 796.314 91.5055C794.655 93.9835 792.119 95.9468 788.744 97.3954C785.331 98.8631 781.231 99.5875 776.388 99.5875Z" fill="white"/>
<path d="M61.4163 125.263C59.8909 126.387 58.0223 127.035 56.0583 127.035H30.7939L0 17.5865H30.7939L37.6391 41.6607L50.6622 87.4264L53.8083 98.52L59.2998 117.81L61.4163 125.263Z" fill="url(#paint0_linear_412_19)"/>
<path d="M154.008 17.5865L123.195 127.035H97.9498C95.9858 127.035 94.1172 126.387 92.5918 125.263L103.346 87.4455L113.032 53.3261L123.195 17.5865H154.008Z" fill="url(#paint1_linear_412_19)"/>
<path d="M64.0857 122.099L77.0135 96.3471L89.9412 122.099C91.4666 125.129 94.5555 127.035 97.9686 127.035H123.233L120.792 122.232L99.2842 79.3636C95.0703 70.9576 86.4328 65.6396 76.9944 65.6396C67.556 65.6396 58.9375 70.9576 54.7045 79.3636L30.7939 127.035H56.0583C59.4523 127.035 62.5603 125.129 64.0857 122.099Z" fill="url(#paint2_linear_412_19)"/>
<path d="M77.7191 34.1506C86.9096 34.1506 94.3459 26.7358 94.3459 17.5674C94.3459 8.41809 86.8906 0.984253 77.7191 0.984253C68.5477 0.984253 61.0923 8.39903 61.0923 17.5674C61.0923 26.7358 68.5286 34.1506 77.7191 34.1506Z" fill="url(#paint3_linear_412_19)"/>
<defs>
<linearGradient id="paint0_linear_412_19" x1="30.7069" y1="17.5897" x2="30.7069" y2="127.045" gradientUnits="userSpaceOnUse">
<stop stop-color="#8A7ED9"/>
<stop offset="1" stop-color="#383673"/>
</linearGradient>
<linearGradient id="paint1_linear_412_19" x1="123.292" y1="17.5897" x2="123.292" y2="127.045" gradientUnits="userSpaceOnUse">
<stop stop-color="#8A7ED9"/>
<stop offset="1" stop-color="#383673"/>
</linearGradient>
<linearGradient id="paint2_linear_412_19" x1="76.9949" y1="65.4131" x2="76.9949" y2="126.816" gradientUnits="userSpaceOnUse">
<stop stop-color="#8A7ED9"/>
<stop offset="1" stop-color="#383673"/>
</linearGradient>
<linearGradient id="paint3_linear_412_19" x1="77.7152" y1="0.64609" x2="77.7152" y2="33.6345" gradientUnits="userSpaceOnUse">
<stop stop-color="#F29441"/>
<stop offset="1" stop-color="#C61C55"/>
</linearGradient>
</defs>
</svg>
