<svg xmlns="http://www.w3.org/2000/svg" xmlns:xlink="http://www.w3.org/1999/xlink" viewBox="0 0 1826.03 1499.25"><defs><style>.cls-1{fill:url(#Dégradé_sans_nom_75);}.cls-2{fill:url(#Dégradé_sans_nom_75-2);}.cls-3{fill:url(#Dégradé_sans_nom_75-3);}.cls-4{fill:url(#Dégradé_sans_nom_28);}</style><linearGradient id="Dégradé_sans_nom_75" x1="364.09" y1="197.25" x2="364.09" y2="1499.25" gradientUnits="userSpaceOnUse"><stop offset="0" stop-color="#8a7ed9"/><stop offset="1" stop-color="#383673"/></linearGradient><linearGradient id="Dégradé_sans_nom_75-2" x1="1461.94" y1="197.25" x2="1461.94" y2="1499.25" xlink:href="#Dégradé_sans_nom_75"/><linearGradient id="Dégradé_sans_nom_75-3" x1="913.01" y1="766.17" x2="913.01" y2="1496.61" xlink:href="#Dégradé_sans_nom_75"/><linearGradient id="Dégradé_sans_nom_28" x1="921.47" y1="-4.25" x2="921.47" y2="388.16" gradientUnits="userSpaceOnUse"><stop offset="0" stop-color="#f29441"/><stop offset="1" stop-color="#c61c55"/></linearGradient></defs><g id="Calque_2" data-name="Calque 2"><g id="Gauche"><path class="cls-1" d="M728.18,1478.15a106.48,106.48,0,0,1-63.48,21.1H365.23L0,197.25H365.23l81.12,286.37,154.37,544.53,37.36,131.9,65,229.28Z"/></g><g id="Droite"><path class="cls-2" d="M1826,197.25l-365.23,1302H1161.33a106.48,106.48,0,0,1-63.49-21.1l127.46-450,114.94-405.84h.1L1460.8,197.25Z"/></g><g id="Centre"><path class="cls-3" d="M759.8,1440.43,913,1134l153.22,306.44a106.36,106.36,0,0,0,95.12,58.78h299.5l-28.58-57.14-255-510A295.47,295.47,0,0,0,913,768.77h0A295.47,295.47,0,0,0,648.74,932.1L365.18,1499.21h299.5A106.36,106.36,0,0,0,759.8,1440.43Z"/></g><g id="Cercle"><circle class="cls-4" cx="921.47" cy="197.17" r="197.17"/></g></g></svg>