<svg width="276" height="26" viewBox="0 0 276 26" fill="none" xmlns="http://www.w3.org/2000/svg">
<path d="M40.8693 0.452552L32.6966 25.412H26.4928L20.9994 8.50572L15.3261 25.412H9.1584L0.949707 0.452552H6.94663L12.5839 17.997L18.473 0.452552H23.8225L29.5318 18.1408L35.3489 0.452552H40.8693ZM44.097 0.452552H49.8782V25.412H44.097V0.452552ZM55.7942 0.452552H67.1407C69.8559 0.452552 72.2385 0.973851 74.3064 2.02544C76.4013 3.05006 78.0197 4.49711 79.1615 6.37559C80.3303 8.25406 80.9057 10.4381 80.9057 12.9368C80.9057 15.4354 80.3213 17.6195 79.1615 19.4979C78.0197 21.3764 76.4013 22.8414 74.3064 23.884C72.2385 24.9087 69.8469 25.421 67.1407 25.421H55.7942V0.452552ZM66.853 20.6754C69.3524 20.6754 71.3394 19.9833 72.8139 18.6081C74.3154 17.206 75.0617 15.3186 75.0617 12.9368C75.0617 10.555 74.3154 8.68548 72.8139 7.30134C71.3394 5.89923 69.3524 5.19817 66.853 5.19817H61.5753V20.6754H66.853ZM104.606 20.7832V25.421H85.2753V0.452552H104.147V5.09031H91.0205V10.51H102.61V15.004H91.0205V20.7832H104.606ZM146.593 0.452552L138.42 25.412H132.217L126.723 8.50572L121.05 25.412H114.882L106.674 0.452552H112.671L118.308 17.997L124.197 0.452552H129.546L135.256 18.1408L141.073 0.452552H146.593ZM161.599 25.8434C159.01 25.8434 156.663 25.2862 154.568 24.1717C152.5 23.0572 150.873 21.5202 149.677 19.5698C148.508 17.5925 147.933 15.3815 147.933 12.9368C147.933 10.4921 148.517 8.29001 149.677 6.33964C150.864 4.3623 152.491 2.82536 154.568 1.70187C156.663 0.587372 159.001 0.0301208 161.599 0.0301208C164.188 0.0301208 166.526 0.587372 168.594 1.70187C170.662 2.81637 172.289 4.3623 173.485 6.33964C174.672 8.29001 175.265 10.4921 175.265 12.9368C175.265 15.3815 174.672 17.5925 173.485 19.5698C172.298 21.5202 170.671 23.0482 168.594 24.1717C166.517 25.2862 164.188 25.8434 161.599 25.8434ZM161.599 20.927C163.074 20.927 164.404 20.5945 165.591 19.9294C166.778 19.2373 167.704 18.2846 168.369 17.0802C169.061 15.8668 169.403 14.4917 169.403 12.9458C169.403 11.3998 169.061 10.0247 168.369 8.81131C167.704 7.59794 166.778 6.6632 165.591 5.99809C164.404 5.30602 163.074 4.96448 161.599 4.96448C160.125 4.96448 158.794 5.30602 157.607 5.99809C156.42 6.6632 155.476 7.60693 154.793 8.81131C154.128 10.0247 153.795 11.3998 153.795 12.9458C153.795 14.4917 154.128 15.8668 154.793 17.0802C155.485 18.2936 156.42 19.2463 157.607 19.9294C158.794 20.5945 160.125 20.927 161.599 20.927ZM195.513 25.421L190.694 18.4643H190.406H185.38V25.421H179.599V0.452552H190.406C192.618 0.452552 194.533 0.821057 196.151 1.55807C197.796 2.29507 199.055 3.33767 199.936 4.69485C200.817 6.05202 201.258 7.65187 201.258 9.51237C201.258 11.3639 200.808 12.9727 199.9 14.3299C199.019 15.6601 197.76 16.6847 196.115 17.3948L201.716 25.421H195.513ZM195.405 9.51237C195.405 8.11025 194.955 7.04069 194.047 6.30368C193.139 5.53971 191.826 5.16222 190.091 5.16222H185.38V13.8625H190.091C191.826 13.8625 193.148 13.485 194.047 12.7211C194.955 11.9661 195.405 10.8965 195.405 9.51237ZM205.834 0.452552H211.615V20.7113H224.14V25.421H205.843V0.452552H205.834ZM227.358 0.452552H238.705C241.42 0.452552 243.803 0.973851 245.871 2.02544C247.966 3.05006 249.584 4.49711 250.726 6.37559C251.895 8.25406 252.47 10.4381 252.47 12.9368C252.47 15.4354 251.886 17.6195 250.726 19.4979C249.584 21.3764 247.966 22.8414 245.871 23.884C243.803 24.9087 241.411 25.421 238.705 25.421H227.358V0.452552ZM238.417 20.6754C240.917 20.6754 242.904 19.9833 244.378 18.6081C245.88 17.206 246.626 15.3186 246.626 12.9368C246.626 10.555 245.88 8.68548 244.378 7.30134C242.904 5.89923 240.917 5.19817 238.417 5.19817H233.14V20.6754H238.417ZM265.039 25.8434C263.061 25.8434 261.155 25.5828 259.294 25.0615C257.46 24.5132 255.985 23.8121 254.871 22.9583L256.831 18.6081C257.9 19.3901 259.177 20.0192 260.652 20.4956C262.126 20.972 263.601 21.2056 265.075 21.2056C266.721 21.2056 267.925 20.972 268.717 20.4956C269.499 19.9923 269.894 19.3451 269.894 18.5362C269.894 17.943 269.661 17.4577 269.184 17.0712C268.735 16.6667 268.141 16.3432 267.404 16.1095C266.694 15.8758 265.714 15.6062 264.482 15.3275C262.576 14.8782 261.02 14.4198 259.807 13.9704C258.593 13.521 257.55 12.793 256.669 11.7953C255.815 10.7976 255.383 9.46743 255.383 7.80466C255.383 6.35761 255.779 5.04537 256.561 3.88593C257.343 2.69953 258.521 1.7558 260.094 1.07272C261.686 0.38065 263.628 0.0391093 265.911 0.0391093C267.503 0.0391093 269.058 0.227854 270.587 0.605347C272.115 0.982839 273.437 1.5311 274.579 2.25013L272.798 6.63624C270.488 5.33299 268.186 4.67687 265.875 4.67687C264.257 4.67687 263.061 4.93752 262.27 5.45882C261.506 5.98012 261.128 6.67219 261.128 7.52604C261.128 8.37989 261.569 9.02702 262.45 9.44945C263.358 9.85391 264.725 10.2584 266.55 10.6628C268.456 11.1122 270.011 11.5706 271.225 12.02C272.439 12.4694 273.473 13.1884 274.327 14.1591C275.208 15.1298 275.648 16.451 275.648 18.1138C275.648 19.5429 275.244 20.8461 274.435 22.0325C273.653 23.201 272.457 24.1267 270.865 24.8098C269.256 25.5019 267.323 25.8434 265.039 25.8434Z" fill="white"/>
</svg>
